inDegrees=yes
name=ik_S49_A07_T02
DataType=double
version=3
OpenSimVersion=4.3-2021-08-27-4bc7ad9
endheader
time	pelvis_tilt	pelvis_list	pelvis_rotation	pelvis_tx	pelvis_ty	pelvis_tz	hip_flexion_r	hip_adduction_r	hip_rotation_r	knee_angle_r	knee_angle_r_beta	ankle_angle_r	subtalar_angle_r	mtp_angle_r	hip_flexion_l	hip_adduction_l	hip_rotation_l	knee_angle_l	knee_angle_l_beta	ankle_angle_l	subtalar_angle_l	mtp_angle_l	lumbar_extension	lumbar_bending	lumbar_rotation	arm_flex_r	arm_add_r	arm_rot_r	elbow_flex_r	pro_sup_r	wrist_flex_r	wrist_dev_r	arm_flex_l	arm_add_l	arm_rot_l	elbow_flex_l	pro_sup_l	wrist_flex_l	wrist_dev_l
11.75999999999984	-5.458698325394761	-2.225216213148844	26.37398372598675	0	0.9399999999999999	0	37.1239268184048	-11.25445789557828	-10.26849040453199	46.46789928968632	0.8110178390901607	0	0	0	37.1239268184048	-11.25445789557828	-10.26849040453199	46.46789928968632	0.8110178390901607	0	0	0	-4.70304849988207	-1.425815317254275	4.787968697794427	67.11174962355283	-8.695789195306324	-0.64078214053587	64.0198820393349	108.3809170921978	0	0	43.51491045765562	-7.993975739146203	21.06321263617707	19.85281898401957	114.1114378118504	0	0
11.77999999999984	-5.460465796304558	-2.229481137024134	26.29160284362164	0	0.9399999999999999	0	37.12885476401674	-11.25177276940946	-10.26812072672164	46.47153231880933	0.811081247410178	0	0	0	37.12885476401674	-11.25177276940946	-10.26812072672164	46.47153231880933	0.811081247410178	0	0	0	-4.704378255254476	-1.434514524337515	4.864852236142156	67.10721052794473	-8.620960991386825	-0.6979587254339872	61.63730389542044	108.3274102602689	0	0	43.49897817836696	-8.004653720918707	21.07891957793782	19.87845051782872	114.0629058423941	0	0
11.79999999999984	-5.459460022754868	-2.241367758935372	26.21564204507741	0	0.9399999999999999	0	37.13354666848824	-11.24922253065787	-10.26776923674197	46.47499523043479	0.8111416866197477	0	0	0	37.13354666848824	-11.24922253065787	-10.26776923674197	46.47499523043479	0.8111416866197477	0	0	0	-4.706778171669515	-1.451361889371471	4.930665036245999	67.10484166316796	-8.54122667938916	-0.7701250250604716	59.29318280658214	108.1661377130642	0	0	43.49021196925695	-8.02792403567878	21.07792696487745	19.90802340139527	114.0531498614787	0	0
11.81999999999984	-5.460498417121747	-2.248970557013793	26.2277864084903	0	0.9399999999999999	0	37.1396231899681	-11.24617693377495	-10.26733591663087	46.47951896765873	0.8112206407288005	0	0	0	37.1396231899681	-11.24617693377495	-10.26733591663087	46.47951896765873	0.8112206407288005	0	0	0	-4.711560458877298	-1.457123818645212	4.931999959031578	67.11916484987862	-8.543162233633913	-0.7877650045584914	59.30262195012219	108.1635167479755	0	0	43.48250475382314	-8.028705868848165	21.06928212506455	19.92433052807186	114.0550964993935	0	0
11.83999999999984	-5.473276756576339	-2.266548920334123	26.13477257928639	0	0.9399999999999999	0	37.1437418605481	-11.24395164251309	-10.26702843757247	46.48256890909197	0.8112738722488038	0	0	0	37.1437418605481	-11.24395164251309	-10.26702843757247	46.48256890909197	0.8112738722488038	0	0	0	-4.726522473466241	-1.475427023462148	5.053566720745815	67.12712762740655	-8.466978150290091	-0.9292500760689587	54.59943466245604	107.5715100740342	0	0	43.52550185374725	-8.024966460276024	21.05556040430812	19.95177434387306	114.0999865395554	0	0
11.85999999999984	-5.454323025205837	-2.283530417777093	26.1700690816551	0	0.9399999999999999	0	37.14615732363924	-11.24266698102923	-10.26684993330998	46.48438268555342	0.8113055286199511	0	0	0	37.14615732363924	-11.24266698102923	-10.26684993330998	46.48438268555342	0.8113055286199511	0	0	0	-4.716780198338949	-1.499972916798077	5.064948359553833	67.08815198152568	-8.46138411729495	-1.036843518853598	53.54428915635115	107.2663176187633	0	0	43.50204192593576	-8.024401960409016	21.08236425161082	19.94107145124482	114.1507353107189	0	0
11.87999999999984	-5.466704166835614	-2.29659472439285	26.16515469038563	0	0.9399999999999999	0	37.14912398081138	-11.24108005206083	-10.26662983874247	46.48659705262909	0.8113441766162695	0	0	0	37.14912398081138	-11.24108005206083	-10.26662983874247	46.48659705262909	0.8113441766162695	0	0	0	-4.732595561301804	-1.50922398288675	5.105447522581082	67.1217860986097	-8.445554547394002	-1.111999461870562	51.23282010612142	106.454843434863	0	0	43.53613089734712	-7.998186400182481	21.08742697970566	19.9826267907251	114.1206855126875	0	0
11.89999999999984	-5.464959511198941	-2.302574745152773	26.12976157230557	0	0.9399999999999999	0	37.15199822247355	-11.23954275180282	-10.26641658663236	46.4887411399858	0.8113815980000942	0	0	0	37.15199822247355	-11.23954275180282	-10.26641658663236	46.4887411399858	0.8113815980000942	0	0	0	-4.731493828644786	-1.520641596577842	5.170780681853266	67.11397101350687	-8.446039014216458	-1.216134455245916	49.10861676875474	105.948632410221	0	0	43.51892437499086	-7.976489287627584	21.08668239158301	19.98753788319721	114.123244238285	0	0
11.91999999999983	-5.467338759200661	-2.31915140116365	26.10078142534013	0	0.9399999999999999	0	37.15503881335115	-11.23791734012926	-10.26619103778038	46.49100882126173	0.8114211765047451	0	0	0	37.15503881335115	-11.23791734012926	-10.26619103778038	46.49100882126173	0.8114211765047451	0	0	0	-4.738969938655092	-1.539596457499683	5.231039718254839	67.12923694153446	-8.444274056767687	-1.338510961094859	47.05354976592347	105.7263595603871	0	0	43.52896792764949	-7.967277777652869	21.06360795772861	20.00426162072633	114.1472875867156	0	0
11.93999999999983	-5.48785890107718	-2.340837488521662	26.08686498714426	0	0.9399999999999999	0	37.15857132356074	-11.23602106977157	-10.26592823764038	46.49363093873972	0.8114669410881101	0	0	0	37.15857132356074	-11.23602106977157	-10.26592823764038	46.49363093873972	0.8114669410881101	0	0	0	-4.765241265685219	-1.554778114260304	5.285955639441956	67.17565861565475	-8.456206615248741	-1.440888199561503	45.07828461443191	105.5322781094652	0	0	43.5918832424472	-7.949861557934283	21.05843756408852	20.02249380431636	114.1699030778193	0	0
11.95999999999983	-5.5079757786521	-2.377042359710326	26.11806634297907	0	0.9399999999999999	0	37.16212221342457	-11.23411561042924	-10.26566408231114	46.49626516399408	0.8115129169920379	0	0	0	37.16212221342457	-11.23411561042924	-10.26566408231114	46.49626516399408	0.8115129169920379	0	0	0	-4.797792943923105	-1.583056566028544	5.333867997379262	67.23289103845009	-8.49897712084285	-1.58335012738991	43.24085165630838	105.2950289848385	0	0	43.65259091103986	-7.930061220409924	21.09834059805322	20.04596491469624	114.1954953632259	0	0
11.97999999999983	-5.519936688107695	-2.398574061703608	26.10380884037972	0	0.9399999999999999	0	37.16538594029272	-11.23236859205058	-10.26542164367802	46.49869001761439	0.8115552386715912	0	0	0	37.16538594029272	-11.23236859205058	-10.26542164367802	46.49869001761439	0.8115552386715912	0	0	0	-4.816530265566914	-1.601189708255074	5.380358571086609	67.27625190316385	-8.508951372544212	-1.680145956207955	41.62745329444436	105.0126798071927	0	0	43.67109921854015	-7.922333752832924	21.10671467772704	20.0618282675903	114.1890417640586	0	0
11.99999999999983	-5.527211813082151	-2.415570642796832	26.1025323666721	0	0.9399999999999999	0	37.16784443059941	-11.23106131339308	-10.26523978495611	46.50052660520531	0.811587293172054	0	0	0	37.16784443059941	-11.23106131339308	-10.26523978495611	46.50052660520531	0.811587293172054	0	0	0	-4.829517881702881	-1.616265032502671	5.413272019290961	67.29854965729362	-8.530198631981506	-1.748084091479257	40.86147547407951	104.9048452682555	0	0	43.70197247620789	-7.915350165822737	21.14840311576041	20.06890805675831	114.1781544395288	0	0
12.01999999999983	-5.55676935649607	-2.428844127928906	26.04292163706307	0	0.9399999999999999	0	37.17181431938496	-11.2289313636501	-10.26494435232118	46.5034652813149	0.8116385827458161	0	0	0	37.17181431938496	-11.2289313636501	-10.26494435232118	46.5034652813149	0.8116385827458161	0	0	0	-4.859738032703389	-1.620662353130781	5.479776348525947	67.36862100458589	-8.540319369051089	-1.843088533241256	38.23188688234697	104.8953365147924	0	0	43.71208938684482	-7.915512926335064	21.03895036617632	20.15079651070982	114.2369469700503	0	0
12.03999999999983	-5.558629568386112	-2.439796075095791	26.01869524863002	0	0.9399999999999999	0	37.17448301854142	-11.22751115949683	-10.2647467725114	46.50545409571861	0.8116732941053719	0	0	0	37.17448301854142	-11.22751115949683	-10.2647467725114	46.50545409571861	0.8116732941053719	0	0	0	-4.865314755938998	-1.632282906703263	5.509219898925418	67.37920795010001	-8.5466568276697	-1.895239662061888	37.20955921067523	104.8539660422148	0	0	43.68565773038452	-7.915316084063326	21.01957461414087	20.19652651346087	114.2066667155419	0	0
12.05999999999983	-5.580837448118991	-2.462081689061034	26.22279571278694	0	0.9399999999999999	0	37.17804807600695	-11.22558024378039	-10.26447972127631	46.50806490044579	0.8117188612439878	0	0	0	37.17804807600695	-11.22558024378039	-10.26447972127631	46.50806490044579	0.8117188612439878	0	0	0	-4.904919278576071	-1.618867178690683	5.287500000996163	68.18141393278012	-6.931995775975165	-2.51716271480004	35.06292562702496	106.2347184407198	0	0	43.71005213759504	-7.947431506724745	20.99336523863937	20.25631052671543	114.1937413778046	0	0
12.07999999999983	-5.633219151970321	-2.482316080824024	26.24242651566376	0	0.9399999999999999	0	37.17878716959006	-11.22518813618088	-10.26442509569719	46.50861646210594	0.8117284878109853	0	0	0	37.17878716959006	-11.22518813618088	-10.26442509569719	46.50861646210594	0.8117284878109853	0	0	0	-4.961339548480216	-1.612776587398104	5.280935914041372	67.84139585402608	-6.82743423037779	-2.553811990658911	35.02179539452426	106.2798289570118	0	0	43.78642909122885	-7.920753271950113	20.98759975851455	20.28900620848322	114.1926882327389	0	0
12.09999999999983	-5.62621192370353	-2.498285105123715	26.21434440721815	0	0.9399999999999999	0	37.18211177752083	-11.22339192233877	-10.26417640718928	46.5110543231385	0.8117710365127095	0	0	0	37.18211177752083	-11.22339192233877	-10.26417640718928	46.5110543231385	0.8117710365127095	0	0	0	-4.962581768315702	-1.629048097410871	5.274658375324458	67.62477203019536	-6.6968626253017	-2.723892049779099	34.42071216046067	106.3586871666948	0	0	43.73093398091327	-7.995215908591632	21.00212262297282	20.35175896214353	114.176392784482	0	0
